<svg width="470" height="58" viewBox="0 0 470 58" fill="none" xmlns="http://www.w3.org/2000/svg">
<path d="M468 41.4356L465.105 40.8569L462.21 47.9186L459.314 48.642L456.419 41.1324L453.524 40.0577L450.629 43.1579L447.734 41.7318L444.838 35.8895L441.943 51.2669L439.048 48.332L436.153 39.8096L433.258 42.5999L430.362 52.8859L427.467 40.0783L424.572 37.9633L421.677 54.1467L418.782 52.3692L415.887 49.703L412.991 48.5593L410.096 38.0873L407.201 44.9286L404.306 48.7522L401.411 31.4527L398.515 37.0952L395.62 42.0212L392.725 36.9781L389.83 53.9745L386.935 41.4562L384.039 30.2057L381.144 32.6239L378.249 43.0891L375.354 39.5892L372.459 44.4256L369.563 41.8627L366.668 43.7849L363.773 36.9574L360.878 44.2327L357.983 50.1508L355.088 56L352.192 54.1467L349.297 47.891L346.402 27.4705L343.507 31.9556L340.612 38.7073L337.716 30.1437L334.821 40.1128L331.926 32.6859L329.031 37.0745L326.136 37.3776L323.24 37.5706L320.345 35.2006L317.45 27.5188L314.555 23.9569L311.66 29.5098L308.764 24.4736L305.869 32.7686L302.974 21.5042L300.079 45.6795L297.184 49.2069L294.289 34.2291L291.393 27.4843L288.498 26.1202L285.603 25.9342L282.708 22.765L279.813 25.2039L276.917 33.8916L274.022 23.5366L271.127 30.5984L268.232 21.0908L265.337 21.8142L262.441 32.7479L259.546 31.6869L256.651 32.8099L253.756 27.5601L250.861 28.1388L247.965 23.013L245.07 25.6793L242.175 22.1243L239.28 26.9331L236.385 26.3613L233.489 27.3465L230.594 16.9709L227.699 18.7553L224.804 24.3082L221.909 22.5652L219.014 25.5415L216.118 19.7198L213.223 24.8663L210.328 20.5259L207.433 20.333L204.538 22.1932L201.763 23.5022L198.868 19.9885L195.973 21.5662L193.077 20.0023L190.182 17.5772L187.287 24.5563L184.392 21.6971L181.497 22.331L178.601 24.0396L175.706 18.962L172.811 33.616L169.916 34.5529L167.021 31.5147L164.126 28.442L161.23 22.5239L158.335 29.4616L155.44 19.8163L152.545 24.1567L149.65 46.7405L146.754 38.9485L143.859 25.4312L140.964 23.4333L138.069 19.1687L135.174 32.6101L132.278 32.9132L129.383 28.5453L126.488 18.1146L123.593 23.2335L120.698 28.8002L117.802 24.4391L114.907 16.4198L112.012 14.7869L109.117 20.9806L106.222 18.0595L103.327 18.149L100.431 20.4019L97.5361 13.974L94.6409 13.1472L91.7457 22.9028L88.8506 15.0763L85.9554 17.4532L83.0602 22.8201L80.165 26.9263L77.2698 29.7647L74.3746 19.1962L71.4794 16.5989L68.5842 21.6076L65.689 33.1337L62.7938 26.0857L59.8986 27.5325L57.0035 28.0906L54.1083 18.8517L51.2131 14.9661L48.3179 16.5093L45.4227 17.3223L42.5275 13.3953L39.6323 10.0538L36.7371 21.9245L33.8419 34.677L30.9467 27.2845L28.0515 20.1952L25.1564 22.703L22.2612 13.533L19.366 5.59633L16.4708 2L13.5756 3.61215L10.6804 9.62669L7.7852 12.541L4.89001 10.7979L2 5.69967" stroke="#FF5E57" stroke-width="3" stroke-linecap="round" stroke-linejoin="round"/>
</svg>
