<svg width="402" height="58" viewBox="0 0 402 58" fill="none" xmlns="http://www.w3.org/2000/svg">
<path d="M2.00001 16.5644L4.47273 17.1431L6.94544 10.0814L9.41819 9.35799L11.8909 16.8676L14.3636 17.9423L16.8363 14.842L19.309 16.2682L21.7818 22.1105L24.2544 6.73309L26.7272 9.66802L29.1999 18.1903L31.6726 15.4001L34.1453 5.11406L36.6181 17.9217L39.0908 20.0367L41.5635 3.85327L44.0362 5.63077L46.5089 8.29701L48.9816 9.44067L51.4544 19.9127L53.9271 13.0714L56.3998 9.24777L58.8725 26.5473L61.3452 20.9048L63.8179 15.9788L66.2907 21.0219L68.7634 4.02552L71.2361 16.5438L73.7088 27.7943L76.1815 25.3761L78.6543 14.9109L81.1269 18.4108L83.5997 13.5744L86.0724 16.1373L88.5451 14.2151L91.0178 21.0426L93.4905 13.7673L95.9633 7.8492L98.436 2.00001L100.909 3.85328L103.381 10.109L105.854 30.5295L108.327 26.0444L110.8 19.2927L113.272 27.8563L115.745 17.8872L118.218 25.3141L120.69 20.9255L123.163 20.6223L125.636 20.4294L128.109 22.7994L130.581 30.4812L133.054 34.0431L135.527 28.4902L137.999 33.5264L140.472 25.2314L142.945 36.4958L145.418 12.3205L147.89 8.79306L150.363 23.7709L152.836 30.5157L155.308 31.8798L157.781 32.0658L160.254 35.235L162.727 32.7961L165.199 24.1084L167.672 34.4634L170.145 27.4016L172.617 36.9092L175.09 36.1858L177.563 25.2521L180.036 26.3131L182.508 25.1901L184.981 30.4399L187.454 29.8612L189.927 34.987L192.399 32.3207L194.872 35.8757L197.345 31.0669L199.817 31.6387L202.29 30.6535L204.763 41.0291L207.236 39.2447L209.708 33.6918L212.181 35.4348L214.654 32.4585L217.126 38.2802L219.599 33.1337L222.072 37.4741L224.545 37.667L227.017 35.8068L229.387 34.4978L231.86 38.0115L234.332 36.4338L236.805 37.9977L239.278 40.4228L241.751 33.4437L244.223 36.3029L246.696 35.669L249.169 33.9604L251.641 39.038L254.114 24.384L256.587 23.4471L259.06 26.4853L261.532 29.5581L264.005 35.4761L266.478 28.5384L268.95 38.1837L271.423 33.8433L273.896 11.2595L276.369 19.0516L278.841 32.5688L281.314 34.5667L283.787 38.8313L286.259 25.3899L288.732 25.0868L291.205 29.4547L293.678 39.8854L296.15 34.7665L298.623 29.1998L301.096 33.5609L303.568 41.5802L306.041 43.2131L308.514 37.0194L310.987 39.9405L313.459 39.851L315.932 37.5981L318.405 44.026L320.877 44.8528L323.35 35.0972L325.823 42.9237L328.296 40.5468L330.768 35.1799L333.241 31.0738L335.714 28.2353L338.187 38.8038L340.659 41.4011L343.132 36.3925L345.605 24.8663L348.077 31.9143L350.55 30.4675L353.023 29.9094L355.496 39.1483L357.968 43.0339L360.441 41.4907L362.914 40.6777L365.386 44.6047L367.859 47.9462L370.332 36.0755L372.805 23.3231L375.277 30.7155L377.75 37.8048L380.223 35.297L382.695 44.467L385.168 52.4037L387.641 56L390.114 54.3879L392.586 48.3733L395.059 45.4591L397.532 47.2021L400 52.3003" stroke="#0BE881" stroke-width="3" stroke-linecap="round" stroke-linejoin="round"/>
</svg>
