<svg width="365" height="99" viewBox="0 0 365 99" fill="none" xmlns="http://www.w3.org/2000/svg">
<path d="M162 67.8061L158.735 84.95L155.469 87L152.204 73.31L148.939 51.5672L145.673 45.8816L142.408 42.4265L139.143 60.5351L135.877 59.7282L132.612 82.6437L129.347 63.7278L126.081 38.0708L122.816 38.8473L119.551 72.7118L116.285 46.7032L113.02 64.1397L109.755 71.8177L106.489 39.3968L103.224 56.6725L99.9585 22.4174L96.6932 70.5311L93.4278 53.6104L90.1625 57.0945L86.8971 51.2692L83.6318 61.4059L80.3664 51.6679L77.1011 69.9583L73.8358 72.8666L70.5704 48.2732L67.3051 55.9512L64.0397 56.0754L60.7744 64.4315L57.509 77.2832L54.2437 68.5796L50.9784 59.7597L47.713 78.2411L44.4477 48.3047L41.1823 76.3903L37.917 59.719L34.6516 57.5588L31.3863 45.1858L28.121 74.6045L24.8556 67.187L21.5903 78.3381L18.3249 64.1809L15.0596 80.0058L11.7942 73.0291L8.52891 42.8029L5.26356 66.5427L2 2" stroke="#0BE881" stroke-width="3" stroke-linecap="round" stroke-linejoin="round"/>
<path d="M363 77.8061L358.551 94.95L354.102 97L349.653 83.31L345.204 61.5672L340.755 55.8816L336.306 52.4265L331.857 70.5351L327.408 69.7282L322.959 92.6437L318.51 73.7278L314.061 48.0708L309.612 48.8473L305.163 82.7118L300.714 56.7032L296.265 74.1397L291.816 81.8177L287.367 49.3968L282.917 66.6725L278.468 32.4174L274.019 80.5311L269.57 63.6104L265.121 67.0945L260.672 61.2692L256.223 71.4059L251.774 61.6679L247.325 79.9583L242.876 82.8666L238.427 58.2732L233.978 65.9512L229.529 66.0754L225.08 74.4315L220.631 87.2832L216.182 78.5796L211.733 69.7597L207.284 88.2411L202.835 58.3047L198.386 86.3903L193.937 69.719L189.488 67.5588L185.039 55.1858L180.59 84.6045L176.141 77.187L171.692 88.3381L167.243 74.1809L162.794 90.0058L158.345 83.0291L153.896 52.8029L149.447 76.5427L145 12" stroke="#0BE881" stroke-width="3" stroke-linecap="round" stroke-linejoin="round"/>
</svg>
