<svg width="409" height="58" viewBox="0 0 409 58" fill="none" xmlns="http://www.w3.org/2000/svg">
<path d="M407 41.4356L404.484 40.8569L401.968 47.9186L399.451 48.642L396.935 41.1324L394.419 40.0577L391.903 43.1579L389.387 41.7318L386.87 35.8895L384.354 51.2669L381.838 48.332L379.322 39.8096L376.806 42.5999L374.289 52.8859L371.773 40.0783L369.257 37.9633L366.741 54.1467L364.224 52.3692L361.708 49.703L359.192 48.5593L356.676 38.0873L354.16 44.9286L351.643 48.7522L349.127 31.4527L346.611 37.0952L344.095 42.0212L341.579 36.9781L339.062 53.9745L336.546 41.4562L334.03 30.2057L331.514 32.6239L328.998 43.0891L326.481 39.5892L323.965 44.4256L321.449 41.8627L318.933 43.7849L316.417 36.9574L313.9 44.2327L311.384 50.1508L308.868 56L306.352 54.1467L303.835 47.891L301.319 27.4705L298.803 31.9556L296.287 38.7073L293.771 30.1437L291.254 40.1128L288.738 32.6859L286.222 37.0745L283.706 37.3776L281.19 37.5706L278.673 35.2006L276.157 27.5188L273.641 23.9569L271.125 29.5098L268.609 24.4736L266.092 32.7686L263.576 21.5042L261.06 45.6795L258.544 49.2069L256.028 34.2291L253.511 27.4843L250.995 26.1202L248.479 25.9342L245.963 22.765L243.447 25.2039L240.93 33.8916L238.414 23.5366L235.898 30.5984L233.382 21.0908L230.865 21.8142L228.349 32.7479L225.833 31.6869L223.317 32.8099L220.801 27.5601L218.284 28.1388L215.768 23.013L213.252 25.6793L210.736 22.1243L208.22 26.9331L205.703 26.3613L203.187 27.3465L200.671 16.9709L198.155 18.7553L195.639 24.3082L193.122 22.5652L190.606 25.5415L188.09 19.7198L185.574 24.8663L183.058 20.5259L180.541 20.333L178.025 22.1932L175.614 23.5022L173.098 19.9885L170.581 21.5662L168.065 20.0023L165.549 17.5772L163.033 24.5563L160.517 21.6971L158 22.331L155.484 24.0396L152.968 18.962L150.452 33.616L147.936 34.5529L145.419 31.5147L142.903 28.4419L140.387 22.5239L137.871 29.4616L135.354 19.8163L132.838 24.1567L130.322 46.7405L127.806 38.9485L125.29 25.4312L122.773 23.4333L120.257 19.1687L117.741 32.6101L115.225 32.9132L112.709 28.5453L110.192 18.1146L107.676 23.2335L105.16 28.8002L102.644 24.4391L100.128 16.4197L97.6114 14.7869L95.0952 20.9806L92.579 18.0595L90.0627 18.149L87.5465 20.4019L85.0303 13.974L82.5141 13.1472L79.9979 22.9028L77.4817 15.0763L74.9655 17.4532L72.4493 22.8201L69.9331 26.9263L67.4169 29.7647L64.9007 19.1962L62.3845 16.5989L59.8683 21.6076L57.3521 33.1337L54.8358 26.0857L52.3196 27.5325L49.8034 28.0906L47.2872 18.8517L44.771 14.9661L42.2548 16.5093L39.7386 17.3223L37.2224 13.3953L34.7062 10.0538L32.19 21.9245L29.6738 34.677L27.1576 27.2845L24.6414 20.1952L22.1252 22.703L19.6089 13.533L17.0927 5.59633L14.5765 2L12.0603 3.61215L9.54412 9.62669L7.02791 12.541L4.51171 10.7979L2 5.69967" stroke="#FF5E57" stroke-width="3" stroke-linecap="round" stroke-linejoin="round"/>
</svg>
