<svg width="470" height="58" viewBox="0 0 470 58" fill="none" xmlns="http://www.w3.org/2000/svg">
<path d="M2.00002 16.5644L4.89521 17.1431L7.7904 10.0814L10.6856 9.35796L13.5808 16.8675L16.476 17.9423L19.3712 14.842L22.2664 16.2681L25.1616 22.1104L28.0567 6.73306L30.9519 9.66799L33.8471 18.1903L36.7423 15.4001L39.6375 5.11402L42.5327 17.9216L45.4279 20.0367L48.3231 3.85324L51.2183 5.63073L54.1135 8.29698L57.0086 9.44064L59.9039 19.9127L62.7991 13.0714L65.6942 9.24773L68.5894 26.5473L71.4846 20.9048L74.3798 15.9788L77.275 21.0219L80.1702 4.02548L83.0654 16.5437L85.9606 27.7943L88.8557 25.3761L91.751 14.9109L94.6461 18.4108L97.5413 13.5743L100.437 16.1372L103.332 14.2151L106.227 21.0426L109.122 13.7673L112.017 7.84916L114.912 1.99997L117.808 3.85324L120.703 10.1089L123.598 30.5294L126.493 26.0444L129.388 19.2926L132.284 27.8563L135.179 17.8872L138.074 25.3141L140.969 20.9255L143.864 20.6223L146.76 20.4294L149.655 22.7994L152.55 30.4812L155.445 34.0431L158.34 28.4901L161.236 33.5264L164.131 25.2314L167.026 36.4958L169.921 12.3205L172.816 8.79303L175.711 23.7708L178.607 30.5157L181.502 31.8798L184.397 32.0658L187.292 35.235L190.187 32.7961L193.083 24.1084L195.978 34.4634L198.873 27.4016L201.768 36.9091L204.663 36.1857L207.559 25.2521L210.454 26.3131L213.349 25.1901L216.244 30.4399L219.139 29.8612L222.035 34.987L224.93 32.3207L227.825 35.8757L230.72 31.0668L233.615 31.6387L236.511 30.6535L239.406 41.0291L242.301 39.2447L245.196 33.6917L248.091 35.4348L250.986 32.4585L253.882 38.2802L256.777 33.1337L259.672 37.4741L262.567 37.667L265.462 35.8068L268.237 34.4978L271.132 38.0115L274.027 36.4338L276.923 37.9977L279.818 40.4228L282.713 33.4437L285.608 36.3029L288.503 35.669L291.399 33.9604L294.294 39.038L297.189 24.384L300.084 23.447L302.979 26.4853L305.874 29.558L308.77 35.4761L311.665 28.5384L314.56 38.1837L317.455 33.8433L320.35 11.2595L323.246 19.0515L326.141 32.5688L329.036 34.5667L331.931 38.8313L334.826 25.3899L337.722 25.0867L340.617 29.4547L343.512 39.8854L346.407 34.7665L349.302 29.1998L352.198 33.5608L355.093 41.5802L357.988 43.2131L360.883 37.0194L363.778 39.9405L366.673 39.851L369.569 37.5981L372.464 44.026L375.359 44.8528L378.254 35.0972L381.149 42.9237L384.045 40.5468L386.94 35.1799L389.835 31.0737L392.73 28.2353L395.625 38.8038L398.521 41.4011L401.416 36.3924L404.311 24.8663L407.206 31.9143L410.101 30.4675L412.997 29.9094L415.892 39.1482L418.787 43.0339L421.682 41.4907L424.577 40.6777L427.473 44.6047L430.368 47.9462L433.263 36.0755L436.158 23.323L439.053 30.7155L441.948 37.8048L444.844 35.297L447.739 44.467L450.634 52.4037L453.529 56L456.424 54.3879L459.32 48.3733L462.215 45.459L465.11 47.2021L468 52.3003" stroke="#0BE881" stroke-width="3" stroke-linecap="round" stroke-linejoin="round"/>
</svg>
