<svg width="244" height="244" viewBox="0 0 244 244" fill="none" xmlns="http://www.w3.org/2000/svg">
<circle cx="122" cy="122" r="122" fill="#0C0C0C"/>
<path fill-rule="evenodd" clip-rule="evenodd" d="M176.435 89.5293C165.336 70.742 145.056 59.2568 121.874 59.2568C86.7792 59.2568 59.4151 86.4414 59.4151 122C59.4151 157.559 86.7792 187.479 121.874 187.479C145.056 187.479 165.336 173.805 176.435 155.018H208.245C195.099 190.079 161.09 215 121.874 215C71.1813 215 29 173.363 29 122C29 70.6374 71.1813 29 121.874 29C161.09 29 195.099 54.4679 208.245 89.5292H176.435V89.5293ZM224 111.059L191.952 134.035H151.746C147.063 146.197 135.341 154.824 121.611 154.824C103.762 154.824 89.2925 140.251 89.2925 122.274C89.2925 104.297 103.762 89.7236 121.611 89.7236C135.548 89.7236 147.423 98.6076 151.96 111.059H224Z" fill="#FFD32A"/>
</svg>
