<svg width="64" height="64" viewBox="0 0 64 64" fill="none" xmlns="http://www.w3.org/2000/svg">
<g clip-path="url(#clip0_0_78)">
<path d="M60.2341 16.9124C61.9659 16.9124 63.375 18.3213 63.375 20.0532V52.2917C63.375 54.0235 61.9661 55.4326 60.2341 55.4326H3.76587C2.03406 55.4326 0.62502 54.0237 0.62502 52.2917V20.0532C0.62502 18.3214 2.03394 16.9124 3.76587 16.9124H60.2341ZM60.2341 16.2874H3.76587C1.68605 16.2874 0 17.9734 0 20.0532V52.2917C0 54.3717 1.68605 56.0576 3.76587 56.0576H60.2341C62.3141 56.0576 64 54.3717 64 52.2917V20.0532C64 17.9734 62.3139 16.2874 60.2341 16.2874Z" fill="#00B5E5"/>
<path d="M7.45862 45.9615V40.2875H5.79395V38.5315H11.1482V40.2875H9.48356V45.9615H7.45862ZM12.1379 45.9615V38.5315H14.2542C15.0831 38.5315 15.6608 38.5696 15.9873 38.6459C16.3138 38.7219 16.5955 38.8496 16.8323 39.0289C17.0997 39.2318 17.3052 39.4906 17.4489 39.8053C17.5927 40.12 17.6647 40.4669 17.6647 40.8457C17.6647 41.421 17.5234 41.8887 17.2409 42.249C16.9583 42.6094 16.5464 42.8486 16.005 42.9673L18.03 45.9613H15.7411L14.0358 43.0533V45.9613H12.1379V45.9615ZM14.036 42.0436H14.4115C14.848 42.0436 15.1667 41.9692 15.3681 41.8202C15.5694 41.6715 15.6701 41.438 15.6701 41.1197C15.6701 40.7474 15.5764 40.4829 15.3885 40.3255C15.2009 40.1683 14.8852 40.0895 14.442 40.0895H14.036V42.0436Z" fill="#00AFD8"/>
<path d="M17.9285 45.9614L20.4914 38.5314H23.029L25.597 45.9614H23.582L23.2065 44.6317H20.3289L19.9433 45.9614H17.9285ZM20.7654 43.1853H22.7802L22.0241 40.734C22.0005 40.6597 21.9683 40.5395 21.9277 40.3737C21.8871 40.2081 21.8347 39.9949 21.7705 39.7343C21.7285 39.9088 21.6854 40.0831 21.6411 40.2571C21.6004 40.4167 21.5572 40.5757 21.5116 40.734L20.7654 43.1853ZM26.3075 45.9614V38.5314H28.2613L31.0678 42.353C31.122 42.4309 31.2109 42.5873 31.3343 42.8224C31.4576 43.0575 31.594 43.3377 31.7429 43.6624C31.706 43.3892 31.6764 43.115 31.6541 42.8401C31.6367 42.6275 31.6273 42.4142 31.6261 42.2008V38.5314H33.57V45.9614H31.6261L28.8197 42.1248C28.7621 42.0469 28.6714 41.8905 28.5482 41.6552C28.4247 41.4201 28.2902 41.1435 28.1445 40.8255C28.1852 41.1368 28.2148 41.4124 28.2334 41.6527C28.2508 41.8654 28.2601 42.0787 28.2613 42.2921V45.9614H26.3075ZM35.4934 43.5609C35.7947 43.9028 36.0913 44.1581 36.384 44.3273C36.6767 44.4966 36.9686 44.5811 37.2597 44.5811C37.5303 44.5811 37.7527 44.5083 37.927 44.3627C38.1012 44.2173 38.1884 44.0328 38.1884 43.8096C38.1884 43.5627 38.113 43.3723 37.9626 43.2388C37.8118 43.105 37.471 42.9673 36.9398 42.825C36.2125 42.629 35.698 42.3733 35.397 42.0586C35.0958 41.744 34.9454 41.3127 34.9454 40.7643C34.9454 40.0538 35.183 39.4747 35.6585 39.0263C36.1338 38.578 36.7503 38.3538 37.5083 38.3538C37.9176 38.3538 38.3059 38.4088 38.673 38.5186C39.0401 38.6286 39.3878 38.7953 39.7159 39.0185L39.0815 40.4751C38.8515 40.2791 38.6154 40.1308 38.3736 40.0309C38.1316 39.9313 37.8922 39.8813 37.6555 39.8813C37.412 39.8813 37.2139 39.9398 37.0617 40.0564C36.9094 40.1731 36.8333 40.3228 36.8333 40.5054C36.8333 40.6915 36.9001 40.8406 37.0338 40.9521C37.1676 41.0636 37.4256 41.1703 37.8077 41.272L37.899 41.2972C38.7245 41.5206 39.2676 41.7659 39.5281 42.0331C39.7039 42.216 39.8378 42.435 39.929 42.6904C40.0203 42.9459 40.0662 43.2293 40.0662 43.5404C40.0662 44.3291 39.8074 44.9625 39.2895 45.4414C38.7719 45.9199 38.0817 46.1593 37.2191 46.1593C36.7014 46.1593 36.2303 46.0712 35.8055 45.8954C35.3808 45.7195 34.9725 45.4437 34.5797 45.0682L35.4934 43.5609ZM41.2028 45.9614V38.5314H45.7552V40.1606H43.177V41.4496H45.6081V43.0433H43.177V45.9614H41.2028ZM46.8565 45.9614V38.5314H51.4089V40.1606H48.8308V41.4496H51.2619V43.0433H48.8308V44.2968H51.4089V45.9612H46.8565V45.9614ZM52.7487 45.9614V38.5314H54.8651C55.6942 38.5314 56.2717 38.5695 56.5982 38.6458C56.9247 38.7218 57.2064 38.8495 57.4433 39.0288C57.7107 39.2317 57.916 39.4905 58.06 39.8052C58.2037 40.1199 58.2757 40.4668 58.2757 40.8456C58.2757 41.4209 58.1344 41.8886 57.852 42.2489C57.5693 42.6093 57.1576 42.8485 56.6162 42.9672L58.641 45.9612H56.3522L54.6469 43.0532V45.9612H52.7487V45.9614ZM54.6469 42.0435H55.0225C55.4589 42.0435 55.7778 41.9691 55.9789 41.8201C56.1802 41.6714 56.2809 41.4379 56.2809 41.1196C56.2809 40.7473 56.187 40.4828 55.9993 40.3254C55.8117 40.1682 55.496 40.0894 55.0529 40.0894H54.6469V42.0435Z" fill="#00AFD8"/>
<path d="M29.0178 26.4523L30.3664 31.5544C30.4301 31.7842 30.4887 32.0236 30.5424 32.2728C30.5962 32.5221 30.6523 32.808 30.7111 33.1305C30.7845 32.7492 30.8467 32.4353 30.898 32.1884C30.9492 31.9417 30.9993 31.7302 31.0482 31.5544L32.309 26.4523H35.2635L32.2285 37.1845H29.5163L28.1894 32.6027C28.1404 32.4413 28.0599 32.1262 27.9475 31.6571C27.8985 31.4471 27.8595 31.2832 27.8302 31.1659C27.8057 31.2685 27.7716 31.4128 27.7276 31.5984C27.6152 32.0724 27.5297 32.4073 27.4711 32.6027L26.1662 37.1845H23.4465L20.4189 26.4523H23.3731L24.6046 31.5837C24.6633 31.8477 24.7208 32.1116 24.7769 32.3755C24.833 32.6393 24.8856 32.9106 24.9345 33.1891C24.9807 32.9737 25.0284 32.7587 25.0775 32.544C25.1518 32.2232 25.2288 31.903 25.3084 31.5836L26.6573 26.4521H29.0178V26.4523ZM36.3484 37.1845V26.4523H39.3027V37.1845H36.3484ZM41.6632 37.1845V26.4523H44.72C45.9172 26.4523 46.7517 26.5072 47.2233 26.6172C47.695 26.727 48.1017 26.9117 48.444 27.1705C48.83 27.4638 49.1269 27.8377 49.3347 28.2922C49.5424 28.7467 49.6462 29.2477 49.6462 29.795C49.6462 30.6259 49.4422 31.3014 49.0341 31.8219C48.626 32.3425 48.0311 32.6881 47.2492 32.8592L50.1742 37.1845H46.868L44.4049 32.984V37.1846H41.6632V37.1845ZM44.4049 31.5252H44.9473C45.5778 31.5252 46.0383 31.4177 46.3292 31.2027C46.6199 30.9877 46.7653 30.6504 46.7653 30.191C46.7653 29.6535 46.6298 29.271 46.3584 29.0437C46.0872 28.8166 45.6315 28.7028 44.9911 28.7028H44.4049V31.5252ZM51.2883 37.1845V26.4523H57.864V28.8055H54.1401V30.6675H57.6514V32.9693H54.1401V34.78H57.864V37.1845H51.2883Z" fill="#006E90"/>
<path d="M5.88232 26.3738H19.2721V28.4988H5.88232V26.3738Z" fill="url(#paint0_linear_0_78)"/>
<path d="M5.88232 30.4985H19.2721V32.6236H5.88232V30.4985Z" fill="url(#paint1_linear_0_78)"/>
<path d="M5.88232 34.9985H19.2721V37.1236H5.88232V34.9985Z" fill="url(#paint2_linear_0_78)"/>
</g>
<defs>
<linearGradient id="paint0_linear_0_78" x1="5.88232" y1="27.4363" x2="19.2721" y2="27.4363" gradientUnits="userSpaceOnUse">
<stop stop-color="#41E700" stop-opacity="0"/>
<stop offset="0.736" stop-color="#3ACD00"/>
<stop offset="0.781" stop-color="#36BE00"/>
<stop offset="0.926" stop-color="#299100"/>
<stop offset="1" stop-color="#248000"/>
</linearGradient>
<linearGradient id="paint1_linear_0_78" x1="5.88232" y1="31.5611" x2="19.2721" y2="31.5611" gradientUnits="userSpaceOnUse">
<stop stop-color="#41E700" stop-opacity="0"/>
<stop offset="0.736" stop-color="#3ACD00"/>
<stop offset="0.781" stop-color="#36BE00"/>
<stop offset="0.926" stop-color="#299100"/>
<stop offset="1" stop-color="#248000"/>
</linearGradient>
<linearGradient id="paint2_linear_0_78" x1="5.88232" y1="36.0611" x2="19.2721" y2="36.0611" gradientUnits="userSpaceOnUse">
<stop stop-color="#41E700" stop-opacity="0"/>
<stop offset="0.736" stop-color="#3ACD00"/>
<stop offset="0.781" stop-color="#36BE00"/>
<stop offset="0.926" stop-color="#299100"/>
<stop offset="1" stop-color="#248000"/>
</linearGradient>
<clipPath id="clip0_0_78">
<rect width="64" height="64" fill="white"/>
</clipPath>
</defs>
</svg>
