<svg width="52" height="52" viewBox="0 0 52 52" fill="none" xmlns="http://www.w3.org/2000/svg">
<circle cx="26" cy="26" r="26" fill="#EDF0F4"/>
<path d="M18.1703 25.8676C18.0963 27.1526 19.0854 28.2526 20.3703 28.3266C20.4166 28.3266 20.4628 28.3266 20.509 28.3266C21.8032 28.3266 22.8477 27.282 22.8385 25.9878C22.8385 24.6937 21.7939 23.6491 20.4998 23.6583C19.2611 23.6583 18.235 24.6289 18.1703 25.8676Z" fill="#0033AD"/>
<path d="M9.4624 25.2668C9.04641 25.2391 8.6859 25.5626 8.66741 25.9786C8.64892 26.3946 8.96322 26.7551 9.3792 26.7736C9.79518 26.8013 10.1465 26.4778 10.1742 26.0618C10.2019 25.6458 9.87838 25.2946 9.4624 25.2668V25.2668Z" fill="#0033AD"/>
<path d="M18.0224 12.3159C18.3921 12.131 18.54 11.6688 18.3552 11.2991C18.1703 10.9293 17.7081 10.7814 17.3383 10.9663C16.9686 11.1511 16.8207 11.6041 17.0055 11.9739C17.1904 12.3529 17.6434 12.51 18.0224 12.3159C18.0131 12.3159 18.0224 12.3159 18.0224 12.3159Z" fill="#0033AD"/>
<path d="M20.3888 16.448C20.962 16.1614 21.1931 15.4589 20.9065 14.8858C20.6199 14.3126 19.9174 14.0815 19.3443 14.3681C18.7711 14.6547 18.54 15.3572 18.8266 15.9303C19.1132 16.5035 19.8157 16.7346 20.3888 16.448Z" fill="#0033AD"/>
<path d="M12.4205 19.2859C12.8642 19.5725 13.4558 19.4523 13.7516 19.0086C14.0382 18.5649 13.918 17.9733 13.4743 17.6775C13.0306 17.3909 12.439 17.5111 12.1432 17.9548V17.9548C11.8474 18.3985 11.9768 18.9994 12.4205 19.2859Z" fill="#0033AD"/>
<path d="M13.8348 24.8508C13.1877 24.8139 12.6423 25.3038 12.6054 25.9509C12.5684 26.598 13.0583 27.1434 13.7054 27.1803C14.3525 27.2173 14.8979 26.7274 14.9349 26.0803V26.0803C14.9718 25.4425 14.4819 24.8878 13.8348 24.8508Z" fill="#0033AD"/>
<path d="M12.5499 32.6806C12.0784 32.9209 11.8843 33.4941 12.1247 33.9747C12.365 34.4462 12.9381 34.6403 13.4188 34.4C13.8903 34.1596 14.0844 33.5865 13.8441 33.1058V33.1058C13.6037 32.6344 13.0213 32.4402 12.5499 32.6806V32.6806Z" fill="#0033AD"/>
<path d="M17.0795 22.4381C17.7173 22.8541 18.5678 22.6784 18.9745 22.0406C19.3905 21.4028 19.2148 20.5523 18.577 20.1456C17.9392 19.7296 17.0887 19.9052 16.682 20.5431C16.266 21.1717 16.4416 22.0221 17.0795 22.4381V22.4381Z" fill="#0033AD"/>
<path d="M31.454 16.3556C31.9901 16.7068 32.7204 16.5589 33.0717 16.0228C33.4229 15.4866 33.275 14.7563 32.7389 14.4051C32.2027 14.0538 31.4724 14.2017 31.1212 14.7379V14.7379C30.7607 15.2833 30.9086 16.0043 31.454 16.3556V16.3556Z" fill="#0033AD"/>
<path d="M33.8389 12.242C34.1902 12.4731 34.6524 12.3714 34.8835 12.0201C35.1146 11.6689 35.0129 11.2067 34.6616 10.9756C34.3103 10.7445 33.8481 10.8461 33.617 11.1882C33.3952 11.5395 33.4969 12.0109 33.8389 12.242V12.242Z" fill="#0033AD"/>
<path d="M31.6296 23.6398C30.3447 23.5659 29.2354 24.555 29.1707 25.8399C29.0967 27.1248 30.0858 28.2341 31.3708 28.2988C31.417 28.2988 31.4632 28.2988 31.5002 28.2988C32.7851 28.2988 33.8297 27.2542 33.8297 25.9601C33.8389 24.7306 32.8683 23.7045 31.6296 23.6398V23.6398Z" fill="#0033AD"/>
<path d="M21.1561 22.2718C21.5536 23.0575 22.3578 23.5567 23.2453 23.5567C24.5302 23.5567 25.5747 22.5121 25.5747 21.218C25.5747 20.8575 25.4916 20.4969 25.3252 20.1642C24.7428 19.0086 23.3377 18.5464 22.1914 19.1288C21.0359 19.7204 20.5737 21.1255 21.1561 22.2718V22.2718Z" fill="#0033AD"/>
<path d="M39.45 19.286C39.9215 19.0456 40.1064 18.4633 39.866 17.9918C39.6257 17.5204 39.0433 17.3355 38.5719 17.5758C38.1004 17.8162 37.9155 18.3893 38.1466 18.8607C38.3962 19.3322 38.9694 19.5263 39.45 19.286V19.286Z" fill="#0033AD"/>
<path d="M33.5339 20.0255C32.8591 20.3675 32.5817 21.1902 32.9238 21.865C33.2658 22.5398 34.0885 22.8171 34.7633 22.4751C35.4381 22.1331 35.7155 21.3104 35.3734 20.6356C35.0314 19.9607 34.2087 19.6927 33.5339 20.0255Z" fill="#0033AD"/>
<path d="M25.9075 11.8907C26.4344 11.9184 26.8874 11.5117 26.9244 10.9848C26.9613 10.4579 26.5454 10.0049 26.0184 9.96795C25.4915 9.94022 25.0386 10.3377 25.0016 10.8646C24.9739 11.4008 25.3806 11.8537 25.9075 11.8907V11.8907Z" fill="#0033AD"/>
<path d="M25.8983 17.9271C26.6563 17.9733 27.3034 17.3909 27.3404 16.6329C27.3866 15.8749 26.8042 15.2278 26.0462 15.1908C25.2882 15.1446 24.6411 15.727 24.6041 16.485C24.5671 17.243 25.1403 17.8901 25.8983 17.9271V17.9271Z" fill="#0033AD"/>
<path d="M18.4661 31.941C19.1409 31.599 19.4182 30.7762 19.0762 30.1014C18.7342 29.4266 17.9114 29.1493 17.2366 29.4913C16.5618 29.8334 16.2845 30.6561 16.6265 31.3309C16.9686 32.0057 17.7913 32.283 18.4661 31.941Z" fill="#0033AD"/>
<path d="M26.7857 19.933C26.0832 21.0146 26.379 22.4567 27.4605 23.1592C28.5421 23.8618 29.9842 23.5659 30.6867 22.4844C31.3892 21.4028 31.0934 19.9608 30.0119 19.2582C29.6329 19.0086 29.1892 18.8792 28.7362 18.8792C27.9505 18.8792 27.2202 19.2767 26.7857 19.933Z" fill="#0033AD"/>
<path d="M30.8438 29.6947C30.2615 28.5392 28.8564 28.077 27.7101 28.6594C26.5546 29.2418 26.0924 30.6469 26.6748 31.7931C27.2572 32.9486 28.6622 33.4108 29.8085 32.8285V32.8285C30.9548 32.2553 31.4262 30.8687 30.8531 29.7132C30.8531 29.704 30.8531 29.704 30.8438 29.6947Z" fill="#0033AD"/>
<path d="M34.9204 29.5284C34.2826 29.1124 33.4322 29.288 33.0254 29.9259C32.6094 30.5637 32.7851 31.4141 33.4229 31.8209C34.0608 32.2369 34.9112 32.0612 35.3179 31.4234C35.7339 30.7948 35.5583 29.9443 34.9204 29.5284V29.5284Z" fill="#0033AD"/>
<path d="M39.3946 26.0249C39.4315 25.3778 38.9416 24.8324 38.2945 24.7954C37.6474 24.7584 37.102 25.2484 37.0651 25.8954C37.0281 26.5425 37.518 27.0879 38.1651 27.1249V27.1249C38.803 27.1619 39.3576 26.6627 39.3946 26.0249Z" fill="#0033AD"/>
<path d="M42.6207 25.1929C42.2047 25.1651 41.8442 25.4887 41.8257 25.9047C41.8072 26.3207 42.1215 26.6812 42.5375 26.6997C42.9535 26.7274 43.3048 26.4038 43.3325 25.9879C43.351 25.5719 43.0367 25.2206 42.6207 25.1929Z" fill="#0033AD"/>
<path d="M39.5795 32.6806C39.1357 32.394 38.5441 32.5142 38.2483 32.9579C37.9618 33.4016 38.0819 33.9932 38.5256 34.289C38.9694 34.5756 39.561 34.4554 39.8568 34.0117C40.1526 33.568 40.0232 32.9671 39.5795 32.6806V32.6806Z" fill="#0033AD"/>
<path d="M18.1518 39.7245C17.8005 39.4934 17.3383 39.5951 17.1072 39.9371C16.8761 40.2884 16.9778 40.7506 17.3198 40.9817C17.6711 41.2128 18.1333 41.1111 18.3644 40.7691V40.7691C18.6048 40.4271 18.5031 39.9556 18.1518 39.7245Z" fill="#0033AD"/>
<path d="M33.9776 39.6505C33.6078 39.8354 33.4599 40.2976 33.6448 40.6673C33.8297 41.0371 34.2919 41.185 34.6616 41.0001C35.0314 40.8152 35.1793 40.3623 34.9944 39.9925C34.8095 39.6135 34.3566 39.4564 33.9776 39.6505C33.9868 39.6505 33.9776 39.6505 33.9776 39.6505Z" fill="#0033AD"/>
<path d="M25.2142 32.0334C25.9168 30.9519 25.621 29.5098 24.5394 28.798C23.4579 28.0955 22.0158 28.3913 21.304 29.4728C20.5922 30.5544 20.8973 31.9965 21.9788 32.7083C22.3578 32.9578 22.8015 33.0873 23.2545 33.0873C24.0495 33.0965 24.7798 32.699 25.2142 32.0334Z" fill="#0033AD"/>
<path d="M20.546 35.6109C20.0098 35.2596 19.2796 35.4075 18.9283 35.9437C18.577 36.4798 18.7249 37.2101 19.2611 37.5614C19.7972 37.9127 20.5275 37.7648 20.8788 37.2286V37.2286C21.2393 36.6924 21.0914 35.9622 20.546 35.6109Z" fill="#0033AD"/>
<path d="M25.9907 40.0758C25.4638 40.0481 25.0109 40.4548 24.9739 40.9817C24.9369 41.5086 25.3529 41.9616 25.8798 41.9986C26.4067 42.0263 26.8597 41.6288 26.8966 41.1019C26.9244 40.5657 26.5176 40.1128 25.9907 40.0758V40.0758Z" fill="#0033AD"/>
<path d="M26 34.0394C25.242 33.9931 24.5949 34.5755 24.5579 35.3335C24.5117 36.0915 25.094 36.7386 25.8521 36.7756C26.6101 36.8126 27.2571 36.2394 27.2941 35.4814C27.3403 34.7327 26.758 34.0763 26 34.0394V34.0394Z" fill="#0033AD"/>
<path d="M31.6111 35.5184C31.038 35.8142 30.8069 36.5168 31.1027 37.0899C31.3985 37.663 32.101 37.8941 32.6742 37.5983C33.2473 37.3118 33.4784 36.6092 33.1918 36.0361C32.896 35.463 32.1935 35.2226 31.6111 35.5184V35.5184Z" fill="#0033AD"/>
</svg>
