<svg width="53" height="53" viewBox="0 0 53 53" fill="none" xmlns="http://www.w3.org/2000/svg">
<path d="M52.2071 32.9105C48.6674 47.1071 34.287 55.7468 20.0871 52.2067C5.89323 48.6674 -2.74749 34.2877 0.793726 20.0923C4.33184 5.89413 18.7123 -2.74627 32.9077 0.792993C47.1066 4.33226 55.7468 18.7135 52.2067 32.9108L52.207 32.9105H52.2071Z" fill="#F3BA2F"/>
<path fill-rule="evenodd" clip-rule="evenodd" d="M26.503 16.8207L19.6402 23.6835L19.6403 23.6832L15.6473 19.6901L26.503 8.8345L37.3621 19.6934L33.369 23.6865L26.503 16.8207ZM12.8275 22.5093L8.83429 26.5032L12.8273 30.4956L16.8205 26.5023L12.8275 22.5093ZM19.6402 29.3233L26.503 36.1856L33.3689 29.32L37.3641 33.311L37.3621 33.3131L26.503 44.1719L15.6473 33.3163L15.6417 33.3106L19.6402 29.3233ZM40.1786 22.5117L36.1854 26.505L40.1785 30.498L44.1716 26.5047L40.1786 22.5117Z" fill="white"/>
<path d="M30.9956 26.4977H30.9975L26.5001 22L23.1758 25.3233V25.3233L22.7939 25.7053L22.0063 26.4931L22 26.4992L22.0063 26.5057L26.5001 31L30.9978 26.5024L31 26.4999L30.9959 26.4977" fill="white"/>
</svg>
