<svg width="56" height="56" viewBox="0 0 56 56" fill="none" xmlns="http://www.w3.org/2000/svg">
<path d="M55.1623 34.7733C51.4227 49.7735 36.23 58.9023 21.2281 55.1617C6.23246 51.4221 -2.89634 36.2284 0.844907 21.2295C4.58287 6.22773 19.7756 -2.90175 34.7729 0.837856C49.7737 4.57746 58.9019 19.7728 55.1619 34.7736L55.1622 34.7733H55.1623Z" fill="#F7931A"/>
<path fill-rule="evenodd" clip-rule="evenodd" d="M40.35 24.0107C40.9073 20.2845 38.0704 18.2816 34.1912 16.9454L35.4496 11.8979L32.3771 11.1323L31.152 16.0469C30.3443 15.8454 29.5148 15.6556 28.6903 15.4674L29.9243 10.5204L26.8536 9.75481L25.5945 14.8006C24.9261 14.6484 24.2696 14.498 23.6326 14.3395L23.6362 14.3237L19.3991 13.2656L18.5817 16.5472C18.5817 16.5472 20.8613 17.0698 20.8133 17.1019C22.0575 17.4125 22.2825 18.2361 22.2451 18.8889L20.8116 24.6392C20.8973 24.6609 21.0084 24.6924 21.131 24.7417L21.0418 24.7194C20.966 24.7005 20.8872 24.6807 20.8063 24.6614L18.797 32.7166C18.645 33.0946 18.259 33.6619 17.3891 33.4465C17.4199 33.4911 15.156 32.8892 15.156 32.8892L13.6305 36.4063L17.6289 37.403C18.0667 37.5128 18.4993 37.6256 18.9276 37.7372L18.9278 37.7373C19.2271 37.8153 19.5242 37.8928 19.8195 37.9683L18.5481 43.0736L21.617 43.8392L22.8762 38.7881C23.7146 39.0157 24.5282 39.2256 25.3248 39.4235L24.0699 44.4508L27.1426 45.2164L28.4139 40.1207C33.6532 41.1122 37.5927 40.7125 39.251 35.9735C40.5871 32.1581 39.1844 29.9573 36.4281 28.5222C38.4357 28.0592 39.9479 26.7388 40.3511 24.0111L40.3501 24.0104L40.35 24.0107ZM33.3299 33.8546C32.4587 37.3552 26.9795 35.9079 24.4725 35.2458C24.247 35.1862 24.0455 35.133 23.8736 35.0903L25.5608 28.3266C25.7703 28.3789 26.0263 28.4364 26.3163 28.5015L26.3164 28.5015C28.9095 29.0834 34.2225 30.2758 33.3301 33.8546H33.3299ZM26.8365 25.3623C28.9266 25.9201 33.4861 27.1369 34.2801 23.9554H34.2804C35.0913 20.7015 30.6602 19.7204 28.4961 19.2413C28.2526 19.1874 28.0378 19.1398 27.8624 19.0961L26.3327 25.2304C26.4772 25.2664 26.6466 25.3116 26.8365 25.3623Z" fill="white"/>
</svg>
