<svg width="56" height="56" viewBox="0 0 56 56" fill="none" xmlns="http://www.w3.org/2000/svg">
<path d="M55.1622 34.7734C51.4222 49.7735 36.2278 58.9023 21.2241 55.1618C6.22682 51.4222 -2.90301 36.2285 0.838661 21.2296C4.57704 6.22776 19.7715 -2.90172 34.7704 0.837886C49.773 4.57749 58.9023 19.7728 55.1618 34.7736L55.1621 34.7734H55.1622Z" fill="#23292F"/>
<path d="M41.4869 12H47L35.5268 23.7975C31.3719 28.0675 24.6355 28.0675 20.4776 23.7975L9.00001 12H14.5176L23.2342 20.9618C25.8768 23.6667 30.121 23.6667 32.7636 20.9618L41.4869 12Z" fill="white"/>
<path d="M14.4959 44H9.00001L20.5039 32.1871C24.6431 27.9377 31.354 27.9377 35.4961 32.1871L47 44H41.5078L32.75 35.0091C30.1174 32.3173 25.8893 32.3173 23.2567 35.0091L14.4959 44Z" fill="white"/>
</svg>
